<mxfile host="app.diagrams.net" modified="2024-06-23T09:12:30.012Z" agent="Mozilla/5.0 (Windows NT 10.0; Win64; x64) AppleWebKit/537.36 (KHTML, like Gecko) Chrome/126.0.0.0 Safari/537.36" etag="dbggmga_i-1DI6lzKBqL" version="24.6.2" type="github">
  <diagram name="Page-1" id="l_9-RIlW9i13i7eaHmRu">
    <mxGraphModel dx="7228" dy="1725" grid="1" gridSize="10" guides="1" tooltips="1" connect="1" arrows="1" fold="1" page="1" pageScale="1" pageWidth="850" pageHeight="1100" math="0" shadow="0">
      <root>
        <mxCell id="0" />
        <mxCell id="1" parent="0" />
        <mxCell id="ouE3uGwMO_rl1Qw4itwe-15" value="Клиент" style="html=1;overflow=block;blockSpacing=1;whiteSpace=wrap;fontSize=23.3;align=center;spacing=9;verticalAlign=top;strokeColor=default;rounded=1;absoluteArcSize=1;arcSize=9;fillColor=none;strokeWidth=2;lucidId=HCPMqrkc3qt5;" parent="1" vertex="1">
          <mxGeometry x="-4080" y="70" width="610" height="770" as="geometry" />
        </mxCell>
        <mxCell id="RoE8E-zZMEs0R_7GRx1K-2" value="Склад" style="html=1;overflow=block;blockSpacing=1;whiteSpace=wrap;fontSize=23.3;align=center;spacing=9;verticalAlign=top;strokeColor=default;rounded=1;absoluteArcSize=1;arcSize=9;fillColor=none;strokeWidth=2;lucidId=1zPMJR6yUo5M;" parent="1" vertex="1">
          <mxGeometry x="-2840" y="310" width="1070" height="383" as="geometry" />
        </mxCell>
        <mxCell id="ouE3uGwMO_rl1Qw4itwe-17" value="Менеджер" style="html=1;overflow=block;blockSpacing=1;whiteSpace=wrap;fontSize=23.3;align=center;spacing=9;verticalAlign=top;strokeColor=default;rounded=1;absoluteArcSize=1;arcSize=9;fillColor=none;strokeWidth=2;lucidId=LsPM5n6X4SBT;" parent="1" vertex="1">
          <mxGeometry x="-4125" y="1120" width="715" height="715" as="geometry" />
        </mxCell>
        <mxCell id="RoE8E-zZMEs0R_7GRx1K-1" value="Выполнение заказа" style="html=1;overflow=block;blockSpacing=1;whiteSpace=wrap;fontSize=23.3;align=center;spacing=9;verticalAlign=top;strokeColor=default;rounded=1;absoluteArcSize=1;arcSize=9;fillColor=none;strokeWidth=2;lucidId=HCPMqrkc3qt5;" parent="1" vertex="1">
          <mxGeometry x="-3361" y="785" width="1661" height="315" as="geometry" />
        </mxCell>
        <mxCell id="RoE8E-zZMEs0R_7GRx1K-3" value="Оплата" style="html=1;overflow=block;blockSpacing=1;whiteSpace=wrap;fontSize=23.3;align=center;spacing=9;verticalAlign=top;strokeColor=default;rounded=1;absoluteArcSize=1;arcSize=9;fillColor=none;strokeWidth=2;lucidId=LsPM5n6X4SBT;" parent="1" vertex="1">
          <mxGeometry x="-4125" y="1875" width="1215" height="675" as="geometry" />
        </mxCell>
        <mxCell id="RoE8E-zZMEs0R_7GRx1K-4" value="Подбор" style="html=1;overflow=block;blockSpacing=1;whiteSpace=wrap;fontSize=23.3;align=center;spacing=9;verticalAlign=top;strokeColor=default;rounded=1;absoluteArcSize=1;arcSize=9;fillColor=none;strokeWidth=2;lucidId=arPMlzmZBy4v;" parent="1" vertex="1">
          <mxGeometry x="-4125" y="2640" width="2085" height="450" as="geometry" />
        </mxCell>
        <mxCell id="RoE8E-zZMEs0R_7GRx1K-5" value="Actor" style="html=1;overflow=block;blockSpacing=1;whiteSpace=wrap;shadow=1;fontSize=16.7;fontColor=#3a414a;spacing=9;strokeColor=none;strokeOpacity=100;fillColor=#FFECA9;strokeWidth=0;lucidId=w99KlHDl9asE;" parent="1" vertex="1">
          <mxGeometry x="-4652" y="2120" width="120" height="120" as="geometry" />
        </mxCell>
        <mxCell id="RoE8E-zZMEs0R_7GRx1K-6" value="Command" style="html=1;overflow=block;blockSpacing=1;whiteSpace=wrap;shadow=1;fontSize=16.7;fontColor=#3a414a;spacing=9;strokeColor=none;strokeOpacity=100;fillOpacity=100;fillColor=#cfe4ff;strokeWidth=0;lucidId=Q99Kw1.Pjyrw;" parent="1" vertex="1">
          <mxGeometry x="-4652" y="2255" width="120" height="120" as="geometry" />
        </mxCell>
        <mxCell id="RoE8E-zZMEs0R_7GRx1K-7" value="Event" style="html=1;overflow=block;blockSpacing=1;whiteSpace=wrap;shadow=1;fontSize=16.7;fontColor=#3a414a;spacing=9;strokeColor=none;strokeOpacity=100;fillOpacity=100;fillColor=#fc9432;strokeWidth=0;lucidId=p-9K~CdR-WWV;" parent="1" vertex="1">
          <mxGeometry x="-4652" y="2390" width="120" height="120" as="geometry" />
        </mxCell>
        <mxCell id="RoE8E-zZMEs0R_7GRx1K-8" value="Policy" style="html=1;overflow=block;blockSpacing=1;whiteSpace=wrap;shadow=1;fontSize=16.7;fontColor=#3a414a;spacing=9;strokeColor=none;strokeOpacity=100;fillOpacity=100;fillColor=#e08fff;strokeWidth=0;lucidId=N-9KG-.BX9-D;" parent="1" vertex="1">
          <mxGeometry x="-4652" y="2525" width="120" height="120" as="geometry" />
        </mxCell>
        <mxCell id="RoE8E-zZMEs0R_7GRx1K-9" value="Read model" style="html=1;overflow=block;blockSpacing=1;whiteSpace=wrap;shadow=1;fontSize=16.7;fontColor=#3a414a;spacing=9;strokeColor=none;strokeOpacity=100;fillOpacity=100;fillColor=#54c45e;strokeWidth=0;lucidId=h_9K0~GqxkKd;" parent="1" vertex="1">
          <mxGeometry x="-4652" y="2675" width="120" height="120" as="geometry" />
        </mxCell>
        <mxCell id="RoE8E-zZMEs0R_7GRx1K-10" value="Comment" style="html=1;overflow=block;blockSpacing=1;whiteSpace=wrap;shadow=1;fontSize=16.7;fontColor=#3a414a;spacing=9;strokeColor=none;strokeOpacity=100;fillOpacity=100;fillColor=#ffffff;strokeWidth=0;lucidId=O_9KG7jxIo2s;" parent="1" vertex="1">
          <mxGeometry x="-4817" y="2810" width="120" height="120" as="geometry" />
        </mxCell>
        <mxCell id="RoE8E-zZMEs0R_7GRx1K-11" value="External system" style="html=1;overflow=block;blockSpacing=1;whiteSpace=wrap;shadow=1;fontSize=16.7;fontColor=#3a414a;spacing=9;strokeColor=none;strokeOpacity=100;fillOpacity=100;fillColor=#ffd9d9;strokeWidth=0;lucidId=3_9KuqBzPV7w;" parent="1" vertex="1">
          <mxGeometry x="-4652" y="2825" width="120" height="120" as="geometry" />
        </mxCell>
        <mxCell id="RoE8E-zZMEs0R_7GRx1K-12" value="Клиент" style="html=1;overflow=block;blockSpacing=1;whiteSpace=wrap;shadow=1;fontSize=16.7;fontColor=#3a414a;spacing=9;strokeColor=none;strokeOpacity=100;fillColor=#FFECA9;strokeWidth=0;lucidId=poOMKIs.5_XG;" parent="1" vertex="1">
          <mxGeometry x="-4050" y="300" width="120" height="120" as="geometry" />
        </mxCell>
        <mxCell id="RoE8E-zZMEs0R_7GRx1K-13" value="Услуга заказана" style="html=1;overflow=block;blockSpacing=1;whiteSpace=wrap;shadow=1;fontSize=16.7;fontColor=#3a414a;spacing=9;strokeColor=none;strokeOpacity=100;fillOpacity=100;fillColor=#fc9432;strokeWidth=0;lucidId=ppOMXzbLRA3F;" parent="1" vertex="1">
          <mxGeometry x="-3750" y="300" width="120" height="120" as="geometry" />
        </mxCell>
        <mxCell id="RoE8E-zZMEs0R_7GRx1K-14" value="Воркер" style="html=1;overflow=block;blockSpacing=1;whiteSpace=wrap;shadow=1;fontSize=16.7;fontColor=#3a414a;spacing=9;strokeColor=none;strokeOpacity=100;fillColor=#FFECA9;strokeWidth=0;lucidId=CqOMGlZuYuNK;" parent="1" vertex="1">
          <mxGeometry x="-3310" y="380" width="120" height="120" as="geometry" />
        </mxCell>
        <mxCell id="RoE8E-zZMEs0R_7GRx1K-15" value="Воркер отметился" style="html=1;overflow=block;blockSpacing=1;whiteSpace=wrap;shadow=1;fontSize=16.7;fontColor=#3a414a;spacing=9;strokeColor=none;strokeOpacity=100;fillOpacity=100;fillColor=#fc9432;strokeWidth=0;lucidId=PqOM9r21cuYt;" parent="1" vertex="1">
          <mxGeometry x="-3050" y="380" width="120" height="120" as="geometry" />
        </mxCell>
        <mxCell id="RoE8E-zZMEs0R_7GRx1K-16" value="Подобран воркер" style="html=1;overflow=block;blockSpacing=1;whiteSpace=wrap;shadow=1;fontSize=16.7;fontColor=#3a414a;spacing=9;strokeColor=none;strokeOpacity=100;fillOpacity=100;fillColor=#fc9432;strokeWidth=0;lucidId=nGOM64Vatthw;" parent="1" vertex="1">
          <mxGeometry x="-3460" y="300" width="120" height="120" as="geometry" />
        </mxCell>
        <mxCell id="RoE8E-zZMEs0R_7GRx1K-17" value="Cron 1w" style="html=1;overflow=block;blockSpacing=1;whiteSpace=wrap;shadow=1;fontSize=16.7;fontColor=#3a414a;spacing=9;strokeColor=none;strokeOpacity=100;fillOpacity=100;fillColor=#ffd9d9;strokeWidth=0;lucidId=evOMV3Vfiq87;" parent="1" vertex="1">
          <mxGeometry x="-4050" y="1935" width="120" height="120" as="geometry" />
        </mxCell>
        <mxCell id="ouE3uGwMO_rl1Qw4itwe-14" style="edgeStyle=orthogonalEdgeStyle;rounded=0;orthogonalLoop=1;jettySize=auto;html=1;" parent="1" source="RoE8E-zZMEs0R_7GRx1K-18" target="RoE8E-zZMEs0R_7GRx1K-25" edge="1">
          <mxGeometry relative="1" as="geometry" />
        </mxCell>
        <mxCell id="RoE8E-zZMEs0R_7GRx1K-18" value="Инвойс выставлен клиенту, сумма списана" style="html=1;overflow=block;blockSpacing=1;whiteSpace=wrap;shadow=1;fontSize=16.7;fontColor=#3a414a;spacing=9;strokeColor=none;strokeOpacity=100;fillOpacity=100;fillColor=#fc9432;strokeWidth=0;lucidId=vvOM6HzBwC0E;" parent="1" vertex="1">
          <mxGeometry x="-3900" y="1935" width="120" height="120" as="geometry" />
        </mxCell>
        <mxCell id="RoE8E-zZMEs0R_7GRx1K-19" value="Cron 1d" style="html=1;overflow=block;blockSpacing=1;whiteSpace=wrap;shadow=1;fontSize=16.7;fontColor=#3a414a;spacing=9;strokeColor=none;strokeOpacity=100;fillOpacity=100;fillColor=#ffd9d9;strokeWidth=0;lucidId=7vOMgfq0zifn;" parent="1" vertex="1">
          <mxGeometry x="-4050" y="2235" width="120" height="120" as="geometry" />
        </mxCell>
        <mxCell id="RoE8E-zZMEs0R_7GRx1K-20" value="Инвойс выставлен, сумма списана" style="html=1;overflow=block;blockSpacing=1;whiteSpace=wrap;shadow=1;fontSize=16.7;fontColor=#3a414a;spacing=9;strokeColor=none;strokeOpacity=100;fillOpacity=100;fillColor=#fc9432;strokeWidth=0;lucidId=GxOMS8AUzHYG;" parent="1" vertex="1">
          <mxGeometry x="-3900" y="2070" width="120" height="120" as="geometry" />
        </mxCell>
        <mxCell id="RoE8E-zZMEs0R_7GRx1K-21" value="Золотая шляпа" style="html=1;overflow=block;blockSpacing=1;whiteSpace=wrap;shadow=1;fontSize=16.7;fontColor=#3a414a;spacing=9;strokeColor=none;strokeOpacity=100;fillOpacity=100;fillColor=#ffd9d9;strokeWidth=0;lucidId=MwOMZVvjgxgr;" parent="1" vertex="1">
          <mxGeometry x="-3360" y="2235" width="120" height="120" as="geometry" />
        </mxCell>
        <mxCell id="RoE8E-zZMEs0R_7GRx1K-22" value="Нотификация воркеру отправлена" style="html=1;overflow=block;blockSpacing=1;whiteSpace=wrap;shadow=1;fontSize=16.7;spacing=9;strokeOpacity=100;fillOpacity=100;strokeWidth=0;lucidId=eROMwl7kWXQV;" parent="1" vertex="1">
          <mxGeometry x="-3440" y="400" width="120" height="120" as="geometry" />
        </mxCell>
        <mxCell id="RoE8E-zZMEs0R_7GRx1K-23" value="Стоимость рассчитана" style="html=1;overflow=block;blockSpacing=1;whiteSpace=wrap;shadow=1;fontSize=16.7;fontColor=#3a414a;spacing=9;strokeColor=none;strokeOpacity=100;fillOpacity=100;fillColor=#fc9432;strokeWidth=0;lucidId=uJOMWGHFDWIN;" parent="1" vertex="1">
          <mxGeometry x="-3310" y="250" width="120" height="120" as="geometry" />
        </mxCell>
        <mxCell id="RoE8E-zZMEs0R_7GRx1K-24" value="Помощь запрошена" style="html=1;overflow=block;blockSpacing=1;whiteSpace=wrap;shadow=1;fontSize=16.7;fontColor=#3a414a;spacing=9;strokeColor=none;strokeOpacity=100;fillOpacity=100;fillColor=#fc9432;strokeWidth=0;lucidId=2oOMrKezj8pF;" parent="1" vertex="1">
          <mxGeometry x="-3750" y="470" width="120" height="120" as="geometry" />
        </mxCell>
        <mxCell id="RoE8E-zZMEs0R_7GRx1K-25" value="Способ списания денег" style="html=1;overflow=block;blockSpacing=1;whiteSpace=wrap;shadow=1;fontSize=16.7;fontColor=#3a414a;spacing=9;strokeColor=none;strokeOpacity=100;fillOpacity=100;fillColor=#ffd9d9;strokeWidth=0;lucidId=vVOM_5~CS0Ev;" parent="1" vertex="1">
          <mxGeometry x="-3735" y="1935" width="120" height="120" as="geometry" />
        </mxCell>
        <mxCell id="RoE8E-zZMEs0R_7GRx1K-27" value="Нотификация отправлена" style="html=1;overflow=block;blockSpacing=1;whiteSpace=wrap;shadow=1;fontSize=16.7;fontColor=#3a414a;spacing=9;strokeColor=none;strokeOpacity=100;fillOpacity=100;fillColor=#fc9432;strokeWidth=0;lucidId=9HOMmKMdv4F6;" parent="1" vertex="1">
          <mxGeometry x="-3210" y="2235" width="120" height="120" as="geometry" />
        </mxCell>
        <mxCell id="RoE8E-zZMEs0R_7GRx1K-28" value="Сотрудник отдела расходников" style="html=1;overflow=block;blockSpacing=1;whiteSpace=wrap;shadow=1;fontSize=16.7;fontColor=#3a414a;spacing=9;strokeColor=none;strokeOpacity=100;fillColor=#FFECA9;strokeWidth=0;lucidId=IsOMc4fZZYhW;" parent="1" vertex="1">
          <mxGeometry x="-2675" y="377.5" width="120" height="120" as="geometry" />
        </mxCell>
        <mxCell id="RoE8E-zZMEs0R_7GRx1K-29" value="Заказ собран" style="html=1;overflow=block;blockSpacing=1;whiteSpace=wrap;shadow=1;fontSize=16.7;fontColor=#3a414a;spacing=9;strokeColor=none;strokeOpacity=100;fillOpacity=100;fillColor=#fc9432;strokeWidth=0;lucidId=5sOMd6QoYHWa;" parent="1" vertex="1">
          <mxGeometry x="-1935" y="377.5" width="120" height="120" as="geometry" />
        </mxCell>
        <mxCell id="RoE8E-zZMEs0R_7GRx1K-30" value="Воркер оповещён" style="html=1;overflow=block;blockSpacing=1;whiteSpace=wrap;shadow=1;fontSize=16.7;spacing=9;strokeOpacity=100;fillOpacity=100;strokeWidth=0;lucidId=jHOMKEXn3ogt;" parent="1" vertex="1">
          <mxGeometry x="-1900" y="460" width="120" height="120" as="geometry" />
        </mxCell>
        <mxCell id="RoE8E-zZMEs0R_7GRx1K-31" value="" style="html=1;jettySize=18;whiteSpace=wrap;fontSize=13;strokeColor=#3a414a;strokeOpacity=100;strokeWidth=1.5;rounded=1;arcSize=12;edgeStyle=orthogonalEdgeStyle;startArrow=none;endArrow=block;endFill=1;exitX=1;exitY=0.5;exitPerimeter=0;entryX=0;entryY=0.5;entryPerimeter=0;lucidId=m1OMvOnFrRix;" parent="1" source="RoE8E-zZMEs0R_7GRx1K-42" target="RoE8E-zZMEs0R_7GRx1K-21" edge="1">
          <mxGeometry width="100" height="100" relative="1" as="geometry">
            <Array as="points" />
          </mxGeometry>
        </mxCell>
        <mxCell id="RoE8E-zZMEs0R_7GRx1K-34" value="HCB" style="html=1;overflow=block;blockSpacing=1;whiteSpace=wrap;shadow=1;fontSize=16.7;fontColor=#3a414a;spacing=9;strokeColor=none;strokeOpacity=100;fillOpacity=100;fillColor=#ffd9d9;strokeWidth=0;lucidId=TIOMhRAhpcNX;" parent="1" vertex="1">
          <mxGeometry x="-4230" y="300" width="120" height="120" as="geometry" />
        </mxCell>
        <mxCell id="RoE8E-zZMEs0R_7GRx1K-35" value="Кандидат" style="html=1;overflow=block;blockSpacing=1;whiteSpace=wrap;shadow=1;fontSize=16.7;fontColor=#3a414a;spacing=9;strokeColor=none;strokeOpacity=100;fillColor=#FFECA9;strokeWidth=0;lucidId=wrOMKcsqYXI9;" parent="1" vertex="1">
          <mxGeometry x="-3512.5" y="2770" width="120" height="120" as="geometry" />
        </mxCell>
        <mxCell id="RoE8E-zZMEs0R_7GRx1K-36" value="Заявка оставлена" style="html=1;overflow=block;blockSpacing=1;whiteSpace=wrap;shadow=1;fontSize=16.7;fontColor=#3a414a;spacing=9;strokeColor=none;strokeOpacity=100;fillOpacity=100;fillColor=#fc9432;strokeWidth=0;lucidId=CrOMI7UI~UgM;" parent="1" vertex="1">
          <mxGeometry x="-3220" y="2770" width="120" height="120" as="geometry" />
        </mxCell>
        <mxCell id="RoE8E-zZMEs0R_7GRx1K-37" value="Тесты выполнены" style="html=1;overflow=block;blockSpacing=1;whiteSpace=wrap;shadow=1;fontSize=16.7;fontColor=#3a414a;spacing=9;strokeColor=none;strokeOpacity=100;fillOpacity=100;fillColor=#fc9432;strokeWidth=0;lucidId=nKOMDOXvX65q;" parent="1" vertex="1">
          <mxGeometry x="-3080" y="2770" width="120" height="120" as="geometry" />
        </mxCell>
        <mxCell id="RoE8E-zZMEs0R_7GRx1K-38" value="Добавлен в пул воркеров" style="html=1;overflow=block;blockSpacing=1;whiteSpace=wrap;shadow=1;fontSize=16.7;fontColor=#3a414a;spacing=9;strokeColor=none;strokeOpacity=100;fillOpacity=100;fillColor=#fc9432;strokeWidth=0;lucidId=LKOMNFMfwg8P;" parent="1" vertex="1">
          <mxGeometry x="-2322.5" y="2690" width="120" height="120" as="geometry" />
        </mxCell>
        <mxCell id="RoE8E-zZMEs0R_7GRx1K-39" value="Забракован" style="html=1;overflow=block;blockSpacing=1;whiteSpace=wrap;shadow=1;fontSize=16.7;fontColor=#3a414a;spacing=9;strokeColor=none;strokeOpacity=100;fillOpacity=100;fillColor=#fc9432;strokeWidth=0;lucidId=0KOMiec8jZ1h;" parent="1" vertex="1">
          <mxGeometry x="-2322.5" y="2850" width="120" height="120" as="geometry" />
        </mxCell>
        <mxCell id="RoE8E-zZMEs0R_7GRx1K-40" value="" style="html=1;jettySize=18;whiteSpace=wrap;fontSize=13;strokeColor=#3a414a;strokeOpacity=100;strokeWidth=1.5;rounded=1;arcSize=12;edgeStyle=orthogonalEdgeStyle;startArrow=none;endArrow=block;endFill=1;exitX=1;exitY=0.5;exitPerimeter=0;entryX=0;entryY=0.5;entryPerimeter=0;lucidId=rmPMru2J6b~m;" parent="1" source="RoE8E-zZMEs0R_7GRx1K-21" target="RoE8E-zZMEs0R_7GRx1K-27" edge="1">
          <mxGeometry width="100" height="100" relative="1" as="geometry">
            <Array as="points" />
          </mxGeometry>
        </mxCell>
        <mxCell id="RoE8E-zZMEs0R_7GRx1K-41" value="Информация о заказе для сборки, кому/для чего" style="html=1;overflow=block;blockSpacing=1;whiteSpace=wrap;shadow=1;fontSize=16.7;fontColor=#3a414a;spacing=9;strokeColor=none;strokeOpacity=100;fillOpacity=100;fillColor=#54c45e;strokeWidth=0;lucidId=dnPMlttxr-Cw;" parent="1" vertex="1">
          <mxGeometry x="-2820" y="377.5" width="120" height="120" as="geometry" />
        </mxCell>
        <mxCell id="RoE8E-zZMEs0R_7GRx1K-42" value="Инвойс выставлен воркеру" style="html=1;overflow=block;blockSpacing=1;whiteSpace=wrap;shadow=1;fontSize=16.7;fontColor=#3a414a;spacing=9;strokeColor=none;strokeOpacity=100;fillOpacity=100;fillColor=#fc9432;strokeWidth=0;lucidId=4vOM6bReLHjo;" parent="1" vertex="1">
          <mxGeometry x="-3585" y="2235" width="120" height="120" as="geometry" />
        </mxCell>
        <mxCell id="RoE8E-zZMEs0R_7GRx1K-43" value="Баланс воркера положительный" style="html=1;overflow=block;blockSpacing=1;whiteSpace=wrap;shadow=1;fontSize=16.7;fontColor=#3a414a;spacing=9;strokeColor=none;strokeOpacity=100;fillOpacity=100;fillColor=#e08fff;strokeWidth=0;lucidId=GoPMGig64.h5;" parent="1" vertex="1">
          <mxGeometry x="-3735" y="2235" width="120" height="120" as="geometry" />
        </mxCell>
        <mxCell id="RoE8E-zZMEs0R_7GRx1K-44" value="Последний день месяца" style="html=1;overflow=block;blockSpacing=1;whiteSpace=wrap;shadow=1;fontSize=16.7;fontColor=#3a414a;spacing=9;strokeColor=none;strokeOpacity=100;fillOpacity=100;fillColor=#fc9432;strokeWidth=0;lucidId=upPMWxlRtGt.;" parent="1" vertex="1">
          <mxGeometry x="-3900" y="2235" width="120" height="120" as="geometry" />
        </mxCell>
        <mxCell id="RoE8E-zZMEs0R_7GRx1K-45" value="" style="html=1;jettySize=18;whiteSpace=wrap;fontSize=13;strokeColor=#3a414a;strokeOpacity=100;strokeWidth=1.5;rounded=1;arcSize=12;edgeStyle=orthogonalEdgeStyle;startArrow=none;endArrow=block;endFill=1;exitX=1;exitY=0.5;exitPerimeter=0;entryX=0;entryY=0.5;entryPerimeter=0;lucidId=VpPM8fYI4oOY;" parent="1" source="RoE8E-zZMEs0R_7GRx1K-44" target="RoE8E-zZMEs0R_7GRx1K-43" edge="1">
          <mxGeometry width="100" height="100" relative="1" as="geometry">
            <Array as="points" />
          </mxGeometry>
        </mxCell>
        <mxCell id="RoE8E-zZMEs0R_7GRx1K-46" value="Менеджер" style="html=1;overflow=block;blockSpacing=1;whiteSpace=wrap;shadow=1;fontSize=16.7;fontColor=#3a414a;spacing=9;strokeColor=none;strokeOpacity=100;fillColor=#FFECA9;strokeWidth=0;lucidId=9pOMJ57Y_Idk;" parent="1" vertex="1">
          <mxGeometry x="-4050" y="1200" width="120" height="120" as="geometry" />
        </mxCell>
        <mxCell id="RoE8E-zZMEs0R_7GRx1K-47" value="Задан тип услуги" style="html=1;overflow=block;blockSpacing=1;whiteSpace=wrap;shadow=1;fontSize=16.7;fontColor=#3a414a;spacing=9;strokeColor=none;strokeOpacity=100;fillOpacity=100;fillColor=#fc9432;strokeWidth=0;lucidId=eqOMj~HfbIqM;" parent="1" vertex="1">
          <mxGeometry x="-3750" y="1200" width="120" height="120" as="geometry" />
        </mxCell>
        <mxCell id="RoE8E-zZMEs0R_7GRx1K-50" value="Ставка сделана" style="html=1;overflow=block;blockSpacing=1;whiteSpace=wrap;shadow=1;fontSize=16.7;fontColor=#3a414a;spacing=9;strokeColor=none;strokeOpacity=100;fillOpacity=100;fillColor=#fc9432;strokeWidth=0;lucidId=gyOMnxQ1Iphz;" parent="1" vertex="1">
          <mxGeometry x="-3750" y="1620" width="120" height="120" as="geometry" />
        </mxCell>
        <mxCell id="RoE8E-zZMEs0R_7GRx1K-52" value="Победитель получил банк" style="html=1;overflow=block;blockSpacing=1;whiteSpace=wrap;shadow=1;fontSize=16.7;fontColor=#3a414a;spacing=9;strokeColor=none;strokeOpacity=100;fillOpacity=100;fillColor=#fc9432;strokeWidth=0;lucidId=P6OMi9ut8j.D;" parent="1" vertex="1">
          <mxGeometry x="-3600" y="1620" width="120" height="120" as="geometry" />
        </mxCell>
        <mxCell id="RoE8E-zZMEs0R_7GRx1K-54" value="Фото отчёта прислано" style="html=1;overflow=block;blockSpacing=1;whiteSpace=wrap;shadow=1;fontSize=16.7;fontColor=#3a414a;spacing=9;strokeColor=none;strokeOpacity=100;fillOpacity=100;fillColor=#fc9432;strokeWidth=0;lucidId=drOM4bqXQkqr;" parent="1" vertex="1">
          <mxGeometry x="-1475" y="382.5" width="120" height="120" as="geometry" />
        </mxCell>
        <mxCell id="RoE8E-zZMEs0R_7GRx1K-56" value="Заказ выполнен" style="html=1;overflow=block;blockSpacing=1;whiteSpace=wrap;shadow=1;fontSize=16.7;fontColor=#3a414a;spacing=9;strokeColor=none;strokeOpacity=100;fillOpacity=100;fillColor=#fc9432;strokeWidth=0;lucidId=PLOM0dX3wPXh;" parent="1" vertex="1">
          <mxGeometry x="-1325" y="382.5" width="120" height="120" as="geometry" />
        </mxCell>
        <mxCell id="RoE8E-zZMEs0R_7GRx1K-57" value="Расходники получены" style="html=1;overflow=block;blockSpacing=1;whiteSpace=wrap;shadow=1;fontSize=16.7;fontColor=#3a414a;spacing=9;strokeColor=none;strokeOpacity=100;fillOpacity=100;fillColor=#fc9432;strokeWidth=0;lucidId=GMOMfP50JJpL;" parent="1" vertex="1">
          <mxGeometry x="-1620" y="382.5" width="120" height="120" as="geometry" />
        </mxCell>
        <mxCell id="RoE8E-zZMEs0R_7GRx1K-58" value="Заказ отменён" style="html=1;overflow=block;blockSpacing=1;whiteSpace=wrap;shadow=1;fontSize=16.7;fontColor=#3a414a;spacing=9;strokeColor=none;strokeOpacity=100;fillOpacity=100;fillColor=#fc9432;strokeWidth=0;lucidId=_TOMA5VqfHQZ;" parent="1" vertex="1">
          <mxGeometry x="-3450" y="120" width="120" height="120" as="geometry" />
        </mxCell>
        <mxCell id="2AL8N9cDnSADsovc2jIz-18" value="" style="edgeStyle=orthogonalEdgeStyle;rounded=0;orthogonalLoop=1;jettySize=auto;html=1;" parent="1" source="RoE8E-zZMEs0R_7GRx1K-60" target="ouE3uGwMO_rl1Qw4itwe-4" edge="1">
          <mxGeometry relative="1" as="geometry" />
        </mxCell>
        <mxCell id="RoE8E-zZMEs0R_7GRx1K-60" value="Поставщик печенья" style="html=1;overflow=block;blockSpacing=1;whiteSpace=wrap;shadow=1;fontSize=16.7;fontColor=#3a414a;spacing=9;strokeColor=none;strokeOpacity=100;fillOpacity=100;fillColor=#ffd9d9;strokeWidth=0;lucidId=0IPMR~APqVfa;" parent="1" vertex="1">
          <mxGeometry x="-2370" y="382.5" width="120" height="120" as="geometry" />
        </mxCell>
        <mxCell id="ouE3uGwMO_rl1Qw4itwe-1" value="Список тестов" style="html=1;overflow=block;blockSpacing=1;whiteSpace=wrap;shadow=1;fontSize=16.7;fontColor=#3a414a;spacing=9;strokeColor=none;strokeOpacity=100;fillOpacity=100;fillColor=#54c45e;strokeWidth=0;lucidId=dnPMlttxr-Cw;" parent="1" vertex="1">
          <mxGeometry x="-3662.5" y="2770" width="120" height="120" as="geometry" />
        </mxCell>
        <mxCell id="ouE3uGwMO_rl1Qw4itwe-2" value="Менеджер" style="html=1;overflow=block;blockSpacing=1;whiteSpace=wrap;shadow=1;fontSize=16.7;fontColor=#3a414a;spacing=9;strokeColor=none;strokeOpacity=100;fillColor=#FFECA9;strokeWidth=0;lucidId=wrOMKcsqYXI9;" parent="1" vertex="1">
          <mxGeometry x="-2770" y="2770" width="120" height="120" as="geometry" />
        </mxCell>
        <mxCell id="ouE3uGwMO_rl1Qw4itwe-3" value="Результаты тестов проверены" style="html=1;overflow=block;blockSpacing=1;whiteSpace=wrap;shadow=1;fontSize=16.7;fontColor=#3a414a;spacing=9;strokeColor=none;strokeOpacity=100;fillOpacity=100;fillColor=#fc9432;strokeWidth=0;lucidId=LKOMNFMfwg8P;" parent="1" vertex="1">
          <mxGeometry x="-2502.5" y="2770" width="120" height="120" as="geometry" />
        </mxCell>
        <mxCell id="ouE3uGwMO_rl1Qw4itwe-4" value="Печенье доставлено" style="html=1;overflow=block;blockSpacing=1;whiteSpace=wrap;shadow=1;fontSize=16.7;fontColor=#3a414a;spacing=9;strokeColor=none;strokeOpacity=100;fillOpacity=100;fillColor=#fc9432;strokeWidth=0;lucidId=5sOMd6QoYHWa;" parent="1" vertex="1">
          <mxGeometry x="-2220" y="382.5" width="120" height="120" as="geometry" />
        </mxCell>
        <mxCell id="ouE3uGwMO_rl1Qw4itwe-6" value="Менеджер" style="html=1;overflow=block;blockSpacing=1;whiteSpace=wrap;shadow=1;fontSize=16.7;fontColor=#3a414a;spacing=9;strokeColor=none;strokeOpacity=100;fillColor=#FFECA9;strokeWidth=0;lucidId=9pOMJ57Y_Idk;" parent="1" vertex="1">
          <mxGeometry x="-3300" y="120" width="120" height="120" as="geometry" />
        </mxCell>
        <mxCell id="ouE3uGwMO_rl1Qw4itwe-7" value="Качество заказа проверено" style="html=1;overflow=block;blockSpacing=1;whiteSpace=wrap;shadow=1;fontSize=16.7;fontColor=#3a414a;spacing=9;strokeColor=none;strokeOpacity=100;fillOpacity=100;fillColor=#fc9432;strokeWidth=0;lucidId=AtOMJSps7HNz;" parent="1" vertex="1">
          <mxGeometry x="-2997.5" y="120" width="120" height="120" as="geometry" />
        </mxCell>
        <mxCell id="ouE3uGwMO_rl1Qw4itwe-8" value="Результаты работы отправлены" style="html=1;overflow=block;blockSpacing=1;whiteSpace=wrap;shadow=1;fontSize=16.7;fontColor=#3a414a;spacing=9;strokeColor=none;strokeOpacity=100;fillOpacity=100;fillColor=#fc9432;strokeWidth=0;lucidId=KROMmHy3ZGi6;" parent="1" vertex="1">
          <mxGeometry x="-2847.5" y="120" width="120" height="120" as="geometry" />
        </mxCell>
        <mxCell id="ouE3uGwMO_rl1Qw4itwe-10" value="(фото + приступил)" style="html=1;overflow=block;blockSpacing=1;whiteSpace=wrap;shadow=1;fontSize=16.7;fontColor=#3a414a;spacing=9;strokeColor=none;strokeOpacity=100;fillOpacity=100;fillColor=#ffffff;strokeWidth=0;lucidId=O_9KG7jxIo2s;" parent="1" vertex="1">
          <mxGeometry x="-2960" y="470" width="120" height="120" as="geometry" />
        </mxCell>
        <mxCell id="ouE3uGwMO_rl1Qw4itwe-11" value="Отчёт подписан" style="html=1;overflow=block;blockSpacing=1;whiteSpace=wrap;shadow=1;fontSize=16.7;fontColor=#3a414a;spacing=9;strokeColor=none;strokeOpacity=100;fillOpacity=100;fillColor=#fc9432;strokeWidth=0;lucidId=GMOMfP50JJpL;" parent="1" vertex="1">
          <mxGeometry x="-1520" y="100" width="120" height="120" as="geometry" />
        </mxCell>
        <mxCell id="ouE3uGwMO_rl1Qw4itwe-12" value="Воркер не пришёл" style="html=1;overflow=block;blockSpacing=1;whiteSpace=wrap;shadow=1;fontSize=16.7;fontColor=#3a414a;spacing=9;strokeColor=none;strokeOpacity=100;fillOpacity=100;fillColor=#e08fff;strokeWidth=0;lucidId=GoPMGig64.h5;" parent="1" vertex="1">
          <mxGeometry x="-3900" y="2390" width="120" height="120" as="geometry" />
        </mxCell>
        <mxCell id="ouE3uGwMO_rl1Qw4itwe-13" value="Заказ провален" style="html=1;overflow=block;blockSpacing=1;whiteSpace=wrap;shadow=1;fontSize=16.7;fontColor=#3a414a;spacing=9;strokeColor=none;strokeOpacity=100;fillOpacity=100;fillColor=#fc9432;strokeWidth=0;lucidId=GLOMKtji0pvv;" parent="1" vertex="1">
          <mxGeometry x="-3735" y="2390" width="120" height="120" as="geometry" />
        </mxCell>
        <mxCell id="ouE3uGwMO_rl1Qw4itwe-19" value="&lt;h1 style=&quot;margin-top: 0px;&quot;&gt;Контексты&lt;/h1&gt;&lt;p&gt;&lt;font style=&quot;font-size: 15px;&quot;&gt;Контексты собраны по исполнителям - клиент/менеджер/воркер/работник склада/кандидат&lt;/font&gt;&lt;/p&gt;&lt;p&gt;С нотификацией не решил, будет это внешняя система или своя, поэтому оставлено просто как событие&lt;/p&gt;" style="text;html=1;whiteSpace=wrap;overflow=hidden;rounded=0;" parent="1" vertex="1">
          <mxGeometry x="-4890" y="180" width="340" height="150" as="geometry" />
        </mxCell>
        <mxCell id="Ob97QmgH0fslo4kpqgYh-1" value="Нотификация отправлена" style="html=1;overflow=block;blockSpacing=1;whiteSpace=wrap;shadow=1;fontSize=16.7;fontColor=#3a414a;spacing=9;strokeColor=none;strokeOpacity=100;fillOpacity=100;fillColor=#ffffff;strokeWidth=0;lucidId=O_9KG7jxIo2s;" parent="1" vertex="1">
          <mxGeometry x="-3650" y="2010" width="120" height="120" as="geometry" />
        </mxCell>
        <mxCell id="Ob97QmgH0fslo4kpqgYh-3" value="Нотификация отправлена" style="html=1;overflow=block;blockSpacing=1;whiteSpace=wrap;shadow=1;fontSize=16.7;fontColor=#3a414a;spacing=9;strokeColor=none;strokeOpacity=100;fillOpacity=100;fillColor=#ffffff;strokeWidth=0;lucidId=O_9KG7jxIo2s;" parent="1" vertex="1">
          <mxGeometry x="-1285" y="462.5" width="120" height="120" as="geometry" />
        </mxCell>
        <mxCell id="Ob97QmgH0fslo4kpqgYh-4" value="Нотификация отправлена" style="html=1;overflow=block;blockSpacing=1;whiteSpace=wrap;shadow=1;fontSize=16.7;fontColor=#3a414a;spacing=9;strokeColor=none;strokeOpacity=100;fillOpacity=100;fillColor=#ffffff;strokeWidth=0;lucidId=O_9KG7jxIo2s;" parent="1" vertex="1">
          <mxGeometry x="-2207.5" y="2670" width="120" height="120" as="geometry" />
        </mxCell>
        <mxCell id="Ob97QmgH0fslo4kpqgYh-5" value="Нотификация отправлена" style="html=1;overflow=block;blockSpacing=1;whiteSpace=wrap;shadow=1;fontSize=16.7;fontColor=#3a414a;spacing=9;strokeColor=none;strokeOpacity=100;fillOpacity=100;fillColor=#ffffff;strokeWidth=0;lucidId=O_9KG7jxIo2s;" parent="1" vertex="1">
          <mxGeometry x="-2227.5" y="2920" width="120" height="120" as="geometry" />
        </mxCell>
        <mxCell id="2AL8N9cDnSADsovc2jIz-1" value="Оставить заявку" style="html=1;overflow=block;blockSpacing=1;whiteSpace=wrap;shadow=1;fontSize=16.7;fontColor=#3a414a;spacing=9;strokeColor=none;strokeOpacity=100;fillOpacity=100;fillColor=#cfe4ff;strokeWidth=0;lucidId=Q99Kw1.Pjyrw;" parent="1" vertex="1">
          <mxGeometry x="-3370" y="2770" width="120" height="120" as="geometry" />
        </mxCell>
        <mxCell id="2AL8N9cDnSADsovc2jIz-2" value="Проверить качество заказа" style="html=1;overflow=block;blockSpacing=1;whiteSpace=wrap;shadow=1;fontSize=16.7;fontColor=#3a414a;spacing=9;strokeColor=none;strokeOpacity=100;fillOpacity=100;fillColor=#cfe4ff;strokeWidth=0;lucidId=Q99Kw1.Pjyrw;" parent="1" vertex="1">
          <mxGeometry x="-3150" y="120" width="120" height="120" as="geometry" />
        </mxCell>
        <mxCell id="2AL8N9cDnSADsovc2jIz-3" value="Оплатить заказ" style="html=1;overflow=block;blockSpacing=1;whiteSpace=wrap;shadow=1;fontSize=16.7;fontColor=#3a414a;spacing=9;strokeColor=none;strokeOpacity=100;fillOpacity=100;fillColor=#cfe4ff;strokeWidth=0;lucidId=Q99Kw1.Pjyrw;" parent="1" vertex="1">
          <mxGeometry x="-3750" y="620" width="120" height="120" as="geometry" />
        </mxCell>
        <mxCell id="2AL8N9cDnSADsovc2jIz-4" value="Оплатил заказ" style="html=1;overflow=block;blockSpacing=1;whiteSpace=wrap;shadow=1;fontSize=16.7;fontColor=#3a414a;spacing=9;strokeColor=none;strokeOpacity=100;fillOpacity=100;fillColor=#fc9432;strokeWidth=0;lucidId=uJOMWGHFDWIN;" parent="1" vertex="1">
          <mxGeometry x="-3720" y="700" width="120" height="120" as="geometry" />
        </mxCell>
        <mxCell id="2AL8N9cDnSADsovc2jIz-6" value="Задать тип услуги" style="html=1;overflow=block;blockSpacing=1;whiteSpace=wrap;shadow=1;fontSize=16.7;fontColor=#3a414a;spacing=9;strokeColor=none;strokeOpacity=100;fillOpacity=100;fillColor=#cfe4ff;strokeWidth=0;lucidId=Q99Kw1.Pjyrw;" parent="1" vertex="1">
          <mxGeometry x="-3900" y="1200" width="120" height="120" as="geometry" />
        </mxCell>
        <mxCell id="2AL8N9cDnSADsovc2jIz-7" value="Сделать ставку" style="html=1;overflow=block;blockSpacing=1;whiteSpace=wrap;shadow=1;fontSize=16.7;fontColor=#3a414a;spacing=9;strokeColor=none;strokeOpacity=100;fillOpacity=100;fillColor=#cfe4ff;strokeWidth=0;lucidId=Q99Kw1.Pjyrw;" parent="1" vertex="1">
          <mxGeometry x="-3900" y="1620" width="120" height="120" as="geometry" />
        </mxCell>
        <mxCell id="2AL8N9cDnSADsovc2jIz-8" value="Отметиться" style="html=1;overflow=block;blockSpacing=1;whiteSpace=wrap;shadow=1;fontSize=16.7;fontColor=#3a414a;spacing=9;strokeColor=none;strokeOpacity=100;fillOpacity=100;fillColor=#cfe4ff;strokeWidth=0;lucidId=Q99Kw1.Pjyrw;" parent="1" vertex="1">
          <mxGeometry x="-3350" y="540" width="120" height="120" as="geometry" />
        </mxCell>
        <mxCell id="2AL8N9cDnSADsovc2jIz-9" value="Отметиться" style="html=1;overflow=block;blockSpacing=1;whiteSpace=wrap;shadow=1;fontSize=16.7;fontColor=#3a414a;spacing=9;strokeColor=none;strokeOpacity=100;fillOpacity=100;fillColor=#cfe4ff;strokeWidth=0;lucidId=Q99Kw1.Pjyrw;" parent="1" vertex="1">
          <mxGeometry x="-3180" y="380" width="120" height="120" as="geometry" />
        </mxCell>
        <mxCell id="2AL8N9cDnSADsovc2jIz-10" value="Собрать заказ" style="html=1;overflow=block;blockSpacing=1;whiteSpace=wrap;shadow=1;fontSize=16.7;fontColor=#3a414a;spacing=9;strokeColor=none;strokeOpacity=100;fillOpacity=100;fillColor=#cfe4ff;strokeWidth=0;lucidId=Q99Kw1.Pjyrw;" parent="1" vertex="1">
          <mxGeometry x="-2070" y="377.5" width="120" height="120" as="geometry" />
        </mxCell>
        <mxCell id="2AL8N9cDnSADsovc2jIz-11" value="Заказать услугу" style="html=1;overflow=block;blockSpacing=1;whiteSpace=wrap;shadow=1;fontSize=16.7;fontColor=#3a414a;spacing=9;strokeColor=none;strokeOpacity=100;fillOpacity=100;fillColor=#cfe4ff;strokeWidth=0;lucidId=Q99Kw1.Pjyrw;" parent="1" vertex="1">
          <mxGeometry x="-3900" y="300" width="120" height="120" as="geometry" />
        </mxCell>
        <mxCell id="2AL8N9cDnSADsovc2jIz-12" value="Запросить помощь" style="html=1;overflow=block;blockSpacing=1;whiteSpace=wrap;shadow=1;fontSize=16.7;fontColor=#3a414a;spacing=9;strokeColor=none;strokeOpacity=100;fillOpacity=100;fillColor=#cfe4ff;strokeWidth=0;lucidId=Q99Kw1.Pjyrw;" parent="1" vertex="1">
          <mxGeometry x="-3900" y="470" width="120" height="120" as="geometry" />
        </mxCell>
        <mxCell id="2AL8N9cDnSADsovc2jIz-13" value="Отменить заказ" style="html=1;overflow=block;blockSpacing=1;whiteSpace=wrap;shadow=1;fontSize=16.7;fontColor=#3a414a;spacing=9;strokeColor=none;strokeOpacity=100;fillOpacity=100;fillColor=#cfe4ff;strokeWidth=0;lucidId=Q99Kw1.Pjyrw;" parent="1" vertex="1">
          <mxGeometry x="-3600" y="120" width="120" height="120" as="geometry" />
        </mxCell>
        <mxCell id="2AL8N9cDnSADsovc2jIz-14" value="Проверить результаты тестов" style="html=1;overflow=block;blockSpacing=1;whiteSpace=wrap;shadow=1;fontSize=16.7;fontColor=#3a414a;spacing=9;strokeColor=none;strokeOpacity=100;fillOpacity=100;fillColor=#cfe4ff;strokeWidth=0;lucidId=Q99Kw1.Pjyrw;" parent="1" vertex="1">
          <mxGeometry x="-2632.5" y="2770" width="120" height="120" as="geometry" />
        </mxCell>
        <mxCell id="2AL8N9cDnSADsovc2jIz-17" value="" style="edgeStyle=orthogonalEdgeStyle;rounded=0;orthogonalLoop=1;jettySize=auto;html=1;" parent="1" source="2AL8N9cDnSADsovc2jIz-15" target="RoE8E-zZMEs0R_7GRx1K-60" edge="1">
          <mxGeometry relative="1" as="geometry" />
        </mxCell>
        <mxCell id="2AL8N9cDnSADsovc2jIz-15" value="Заказать печенье" style="html=1;overflow=block;blockSpacing=1;whiteSpace=wrap;shadow=1;fontSize=16.7;fontColor=#3a414a;spacing=9;strokeColor=none;strokeOpacity=100;fillOpacity=100;fillColor=#cfe4ff;strokeWidth=0;lucidId=Q99Kw1.Pjyrw;" parent="1" vertex="1">
          <mxGeometry x="-2530" y="382.5" width="120" height="120" as="geometry" />
        </mxCell>
        <mxCell id="QO7Ni4xg8hyCzxuAPd0e-1" value="Результаты тестов" style="html=1;overflow=block;blockSpacing=1;whiteSpace=wrap;shadow=1;fontSize=16.7;fontColor=#3a414a;spacing=9;strokeColor=none;strokeOpacity=100;fillOpacity=100;fillColor=#54c45e;strokeWidth=0;lucidId=dnPMlttxr-Cw;" vertex="1" parent="1">
          <mxGeometry x="-2920" y="2770" width="120" height="120" as="geometry" />
        </mxCell>
        <mxCell id="QO7Ni4xg8hyCzxuAPd0e-2" value="Менеджер" style="html=1;overflow=block;blockSpacing=1;whiteSpace=wrap;shadow=1;fontSize=16.7;fontColor=#3a414a;spacing=9;strokeColor=none;strokeOpacity=100;fillColor=#FFECA9;strokeWidth=0;lucidId=9pOMJ57Y_Idk;" vertex="1" parent="1">
          <mxGeometry x="-4080" y="2770" width="120" height="120" as="geometry" />
        </mxCell>
        <mxCell id="QO7Ni4xg8hyCzxuAPd0e-3" value="Задан набор тестов" style="html=1;overflow=block;blockSpacing=1;whiteSpace=wrap;shadow=1;fontSize=16.7;fontColor=#3a414a;spacing=9;strokeColor=none;strokeOpacity=100;fillOpacity=100;fillColor=#fc9432;strokeWidth=0;lucidId=3rOMl7Rf~eKV;" vertex="1" parent="1">
          <mxGeometry x="-3800" y="2770" width="120" height="120" as="geometry" />
        </mxCell>
        <mxCell id="QO7Ni4xg8hyCzxuAPd0e-4" value="Задать набор тестов" style="html=1;overflow=block;blockSpacing=1;whiteSpace=wrap;shadow=1;fontSize=16.7;fontColor=#3a414a;spacing=9;strokeColor=none;strokeOpacity=100;fillOpacity=100;fillColor=#cfe4ff;strokeWidth=0;lucidId=Q99Kw1.Pjyrw;" vertex="1" parent="1">
          <mxGeometry x="-3940" y="2770" width="120" height="120" as="geometry" />
        </mxCell>
        <mxCell id="QO7Ni4xg8hyCzxuAPd0e-5" value="Информация о заказе для сборки, кому/для чего" style="html=1;overflow=block;blockSpacing=1;whiteSpace=wrap;shadow=1;fontSize=16.7;fontColor=#3a414a;spacing=9;strokeColor=none;strokeOpacity=100;fillOpacity=100;fillColor=#54c45e;strokeWidth=0;lucidId=dnPMlttxr-Cw;" vertex="1" parent="1">
          <mxGeometry x="-3600" y="300" width="120" height="120" as="geometry" />
        </mxCell>
        <mxCell id="QO7Ni4xg8hyCzxuAPd0e-7" value="Воркер" style="html=1;overflow=block;blockSpacing=1;whiteSpace=wrap;shadow=1;fontSize=16.7;fontColor=#3a414a;spacing=9;strokeColor=none;strokeOpacity=100;fillColor=#FFECA9;strokeWidth=0;lucidId=CqOMGlZuYuNK;" vertex="1" parent="1">
          <mxGeometry x="-1760" y="377.5" width="120" height="120" as="geometry" />
        </mxCell>
      </root>
    </mxGraphModel>
  </diagram>
</mxfile>
